<?xml version="1.0" encoding="UTF-8"?>
<svg width="24" height="24" viewBox="0 0 24 24" fill="none" xmlns="http://www.w3.org/2000/svg">
    <path d="M18 11V7L14 3H6C4.9 3 4 3.9 4 5V19C4 20.1 4.9 21 6 21H7C7 19.9 7.9 19 9 19C10.1 19 11 19.9 11 21H17C17 19.9 17.9 19 19 19C20.1 19 21 19.9 21 21H23V15L18 11ZM6.5 18C5.67 18 5 17.33 5 16.5C5 15.67 5.67 15 6.5 15C7.33 15 8 15.67 8 16.5C8 17.33 7.33 18 6.5 18ZM17.5 18C16.67 18 16 17.33 16 16.5C16 15.67 16.67 15 17.5 15C18.33 15 19 15.67 19 16.5C19 17.33 18.33 18 17.5 18ZM17 11L19 13H14V11H17Z" fill="currentColor"/>
</svg> 